<?xml version="1.0" standalone="no"?>
<!DOCTYPE svg PUBLIC "-//W3C//DTD SVG 20010904//EN"
 "http://www.w3.org/TR/2001/REC-SVG-20010904/DTD/svg10.dtd">
<svg version="1.0" xmlns="http://www.w3.org/2000/svg"
 width="512.000000pt" height="512.000000pt" viewBox="0 0 512.000000 512.000000"
 preserveAspectRatio="xMidYMid meet">
<metadata>
Created by potrace 1.14, written by Peter Selinger 2001-2017
</metadata>
<g transform="translate(0.000000,512.000000) scale(0.100000,-0.100000)"
fill="#000000" stroke="none">
<path d="M1892 4888 c-137 -15 -262 -112 -308 -240 -21 -58 -20 -56 -49 -253
-8 -60 -18 -123 -20 -140 -3 -16 -8 -55 -11 -85 l-6 -55 149 2 c81 1 151 2
154 2 4 1 10 21 13 44 4 24 8 55 11 68 2 13 9 65 15 114 7 50 14 97 15 105 1
8 6 34 10 57 13 83 -36 78 695 78 614 0 649 -1 668 -18 19 -18 28 -54 46 -187
17 -122 38 -255 42 -259 3 -3 224 -5 290 -2 20 1 21 5 14 44 -5 23 -10 58 -13
77 -3 19 -10 67 -16 105 -5 39 -13 93 -16 120 -23 193 -74 292 -185 364 -100
65 -96 64 -800 65 -349 1 -663 -2 -698 -6z"/>
<path d="M126 3795 c-49 -17 -84 -50 -107 -100 -17 -37 -19 -75 -19 -520 0
-274 4 -508 10 -545 15 -98 78 -216 154 -293 74 -74 156 -120 261 -147 73 -19
110 -19 773 -17 l697 2 1 150 c1 83 6 161 11 175 14 34 58 76 92 88 35 12
1072 12 1117 0 35 -9 81 -51 97 -88 5 -14 10 -92 11 -175 l1 -150 720 0 c677
0 723 1 775 19 194 66 335 213 383 400 24 89 25 1038 2 1093 -24 57 -63 92
-120 108 -72 20 -4801 20 -4859 0z"/>
<path d="M2209 2278 c-1 -7 -2 -124 -3 -259 l-1 -246 85 -44 c47 -25 127 -67
178 -94 l92 -50 68 36 c37 20 112 60 167 89 55 29 105 58 110 65 8 9 13 453 6
508 -1 4 -158 7 -351 7 -273 0 -350 -3 -351 -12z"/>
<path d="M2 1208 c3 -923 0 -871 56 -925 13 -13 37 -31 55 -40 30 -16 202 -17
2447 -17 l2415 0 42 24 c24 13 55 41 70 63 l28 40 3 854 c2 689 0 853 -10 847
-7 -4 -29 -19 -48 -34 -80 -62 -201 -114 -324 -139 -84 -17 -149 -19 -795 -19
-387 -1 -706 -4 -710 -7 -3 -4 -7 -53 -7 -109 -3 -145 -14 -164 -139 -231 -38
-21 -92 -50 -120 -65 -27 -15 -95 -51 -150 -81 -227 -120 -235 -123 -290 -108
-27 8 -348 174 -505 261 -111 62 -122 84 -123 230 l-1 108 -60 0 c-850 3
-1407 8 -1431 14 -131 30 -273 90 -345 146 -19 14 -41 30 -48 34 -10 6 -12
-158 -10 -846z"/>
</g>
</svg>
